# xmcd
#
# Track frame offsets: 
#        150
#        18805
#        37342
#        55097
#        72895
#        91432
#        109125
#        128042
#        146455
#        164035
#        182220
#        200967
#        218275
#        236037
#        253990
#        272105
#        289960
#        307790
#        337915
#
# Disc length: 4599 seconds
#
# Revision: 2
# Processed by: cddbd v1.5.2PL0 Copyright (c) Steve Scherf et al.
# Submitted via: ExactAudioCopy v0.99pb5
#
DISCID=2311f513
DTITLE=Various Artist - Super Eurobeat Vol. 85
DYEAR=1998
DGENRE=Eurobeat
TTITLE0=Mega NRG Man - Take Me Like A Wild Boy
TTITLE1=Jilly - Be My Babe
TTITLE2=Dr. Love - Eurobeat
TTITLE3=Richard Gray - Unbreak My Heart
TTITLE4=Norma Sheffield - Maybe Tonight
TTITLE5=Mr. M - Jungle Love
TTITLE6=Nathalie - Something In The Night
TTITLE7=Priscilla - Shame On You
TTITLE8=Max Coveri - Running In The 90s
TTITLE9=Alexis - Harmony
TTITLE10=A-Beat Sisters - Go Baby Go
TTITLE11=Doki Doki - Never Say Never
TTITLE12=Virginelle - Baby Don't Let Me Down
TTITLE13=Valentina - Purify Your Love
TTITLE14=Black Power - Rock Your Baby
TTITLE15=Angie Davis - Forever Now
TTITLE16=Lou Grant - Don't Stop The Music
TTITLE17=Susan Bell - My Only Star
TTITLE18=Data Track
EXTD=YEAR: 1998
EXTT0=
EXTT1=
EXTT2=
EXTT3=
EXTT4=
EXTT5=
EXTT6=
EXTT7=
EXTT8=
EXTT9=
EXTT10=
EXTT11=
EXTT12=
EXTT13=
EXTT14=
EXTT15=
EXTT16=
EXTT17=
EXTT18=
PLAYORDER=
